<?xml version="1.0" encoding="UTF-8" standalone="no"?>
<svg
   xmlns:dc="http://purl.org/dc/elements/1.1/"
   xmlns:cc="http://creativecommons.org/ns#"
   xmlns:rdf="http://www.w3.org/1999/02/22-rdf-syntax-ns#"
   xmlns:svg="http://www.w3.org/2000/svg"
   xmlns="http://www.w3.org/2000/svg"
   id="svg6"
   version="1.1"
   height="36"
   width="36"
   viewBox="0 0 24 24">
  <metadata
     id="metadata12">
    <rdf:RDF>
      <cc:Work
         rdf:about="">
        <dc:format>image/svg+xml</dc:format>
        <dc:type
           rdf:resource="http://purl.org/dc/dcmitype/StillImage" />
        <dc:title></dc:title>
      </cc:Work>
    </rdf:RDF>
  </metadata>
  <defs
     id="defs10" />
  <path
     id="path2"
     d="M0 0h24v24H0z"
     fill="none" />
  <path
     style="fill:#77a7fd"
     id="path4"
     d="M12 10.202L9.303 12 12 13.798 14.697 12 12 10.202zm4.5.596L19.197 9 13 4.869v3.596l3.5 2.333zm3.5.07L18.303 12 20 13.131V10.87zm-3.5 2.334L13 15.535v3.596L19.197 15 16.5 13.202zM11 8.465V4.869L4.803 9 7.5 10.798 11 8.465zM4.803 15L11 19.131v-3.596l-3.5-2.333L4.803 15zm.894-3L4 10.869v2.262L5.697 12zM2 9a1 1 0 0 1 .445-.832l9-6a1 1 0 0 1 1.11 0l9 6A1 1 0 0 1 22 9v6a1 1 0 0 1-.445.832l-9 6a1 1 0 0 1-1.11 0l-9-6A1 1 0 0 1 2 15V9z" />
</svg>
