<?xml version="1.0" encoding="UTF-8" standalone="no"?>
<svg
   xmlns:dc="http://purl.org/dc/elements/1.1/"
   xmlns:cc="http://creativecommons.org/ns#"
   xmlns:rdf="http://www.w3.org/1999/02/22-rdf-syntax-ns#"
   xmlns:svg="http://www.w3.org/2000/svg"
   xmlns="http://www.w3.org/2000/svg"
   id="svg8"
   xml:space="preserve"
   width="36"
   viewBox="0 0 36 36"
   version="1.1"
   height="36"><metadata
     id="metadata14"><rdf:RDF><cc:Work
         rdf:about=""><dc:format>image/svg+xml</dc:format><dc:type
           rdf:resource="http://purl.org/dc/dcmitype/StillImage" /><dc:title></dc:title></cc:Work></rdf:RDF></metadata><defs
     id="defs12" /><path
     style="fill:#77a7fd;fill-opacity:1;stroke-width:0.1178218"
     id="path2"
     d="m 24.363517,34.747809 c -0.419327,0 -4.330658,-3.786439 -4.022554,-4.095721 0.09202,-0.0919 0.662748,-0.156467 1.857815,-0.193699 0,-2.776353 0.06245,-7.260415 0.09944,-9.137434 0.0044,-0.213729 -0.04654,-0.363009 -0.04654,-0.619272 H 13.79066 c 0,0.751585 -0.04854,3.83192 0.145156,7.714854 0.02416,0.480478 -0.167307,0.6307 -0.607725,0.62858 -1.072413,-0.0029 -2.145652,-0.01168 -3.219009,-0.0084 C 9.6751444,29.037717 9.4876901,28.874829 9.501475,28.39011 9.598798,24.85039 9.8148843,19.495978 9.485692,5.8778958 V 5.5422597 C 8.4620511,5.5052672 7.7517033,5.440698 7.6585064,5.3476186 7.349342,5.0384534 11.314752,1.2521323 11.732903,1.2521323 c 0.419209,0 4.35811,3.7873819 4.051066,4.0954863 -0.09214,0.09202 -0.836299,0.1576451 -1.775221,0.1946411 V 5.8768743 C 13.752605,8.6026821 13.793959,14.301841 13.730453,17.03295 h 8.495778 c 0,-0.481773 0.04136,-3.677453 -0.126895,-8.85372 -0.01075,-0.3590022 0.100501,-0.5474003 0.445484,-0.5504633 1.171738,-0.00841 2.344654,-0.013785 3.51757,-0.00643 0.36619,0.00234 0.483658,0.1821529 0.476354,0.5695507 -0.386455,20.2489746 -0.06999,18.8358196 -0.06999,22.2653776 0.93904,0.03711 1.780523,0.101797 1.872777,0.194995 0.304924,0.308104 -3.558806,4.095603 -3.978017,4.095603 z" /><g
     transform="translate(0,-476)"
     id="Layer_1" /></svg>